Coordinates
version=1
nRows=16
nColumns=32
inDegrees=yes

Units are S.I. units (second, meters, Newtons, ...)
Angles are in degrees.

endheader
time	lower_torso_RX	lower_torso_RY	lower_torso_RZ	lower_torso_TX	lower_torso_TY	lower_torso_TZ	lumbar_pitch	lumbar_roll	lumbar_yaw	hip_flex_r	hip_add_r	hip_rot_r	knee_flex_r	tib_pat_r_r3	tib_pat_r_tx	tib_pat_r_ty	tib_pat_r_tz	ankle_flex_r	subt_angle_r	toe_angle_r	hip_flex_l	hip_add_l	hip_rot_l	knee_flex_l	tib_pat_l_r3	tib_pat_l_tx	tib_pat_l_ty	tib_pat_l_tz	ankle_flex_l	subt_angle_l	toe_angle_l
      3.89000000	     -4.03017398	     -8.99513076	    -18.14743980	     -0.16194078	      0.66906120	     -0.19776749	      0.00000000	      0.00000000	      0.00000000	      8.25417732	      3.89263255	     29.90916212	     27.96677761	      5.37397291	      0.03108751	      0.00682385	      0.00073425	     18.28360456	      8.41061746	      0.00000000	     46.73356283	     -2.68226957	     12.42232739	     33.48303992	      7.98813995	      0.02763303	     -0.00045701	     -0.00343574	      8.46547829	      5.32101323	      0.00000000
      3.90000000	     -3.97908928	     -9.50634078	    -18.57165767	     -0.15395208	      0.66855452	     -0.19824299	      0.00000000	      0.00000000	      0.00000000	      8.84769942	      3.88708828	     30.27348786	     29.47407460	      5.76376825	      0.03080423	      0.00689213	      0.00073425	     17.29159147	      8.86585315	      0.00000000	     46.99135861	     -2.29892247	     12.72950060	     34.69178187	      8.26773758	      0.02737930	     -0.00040980	     -0.00343574	      9.08439370	      4.11839952	      0.00000000
      3.91000000	     -3.89667966	    -10.17688747	    -19.04403335	     -0.14601101	      0.66887899	     -0.19828369	      0.00000000	      0.00000000	      0.00000000	      9.27796926	      3.63796914	     30.17215356	     30.27476022	      5.96575678	      0.03064922	      0.00691189	      0.00073425	     16.57732710	      8.92570596	      0.00000000	     46.84054924	     -2.08522241	     12.95012612	     35.10570958	      8.36201059	      0.02729307	     -0.00039254	     -0.00343574	      9.50974876	      3.63736660	      0.00000000
      3.92000000	     -3.25567287	    -10.18642438	    -19.42316210	     -0.13801373	      0.66937807	     -0.19894407	      0.00000000	      0.00000000	      0.00000000	     10.04520810	      3.31378239	     30.15922390	     31.97859469	      6.38494820	      0.03031241	      0.00698667	      0.00073425	     14.64853481	      9.22745670	      0.00000000	     46.69408096	     -1.12562486	     13.08427043	     35.36524318	      8.42047432	      0.02723766	     -0.00038302	     -0.00343574	     10.18305244	      2.89636506	      0.00000000
      3.93000000	     -2.80127999	     -9.67601631	    -19.76966898	     -0.13004990	      0.67048606	     -0.19985050	      0.00000000	      0.00000000	      0.00000000	     10.40711319	      3.19579138	     29.89933102	     33.00675527	      6.63085293	      0.03010354	      0.00702731	      0.00073425	     13.50101960	      9.25907154	      0.00000000	     46.39788524	     -0.43828741	     12.97583614	     35.15590887	      8.37326012	      0.02728259	     -0.00039096	     -0.00343574	     10.35994363	      2.56101928	      0.00000000
      3.94000000	     -1.74680510	     -9.85515208	    -19.98085456	     -0.12245748	      0.67201249	     -0.20003273	      0.00000000	      0.00000000	      0.00000000	     11.45156393	      2.31023812	     28.88056160	     34.84587438	      7.05794815	      0.02972264	      0.00709825	      0.00073425	     10.92031134	      8.98742826	      0.00000000	     45.59167212	      0.72310545	     13.15330078	     34.40107369	      8.20119154	      0.02743945	     -0.00041964	     -0.00343574	     10.47834570	      2.26202510	      0.00000000
      3.95000000	     -0.77074343	     -9.65166298	    -20.27808133	     -0.11466131	      0.67367630	     -0.20072492	      0.00000000	      0.00000000	      0.00000000	     12.21238109	      1.45827243	     27.77240643	     36.06714875	      7.33242306	      0.02946117	      0.00715096	      0.00073425	      8.76704209	      8.63421887	      0.00000000	     44.74028927	      1.81533350	     13.20057726	     33.19470175	      7.92027243	      0.02769006	     -0.00046783	     -0.00343574	     10.26797792	      1.98670095	      0.00000000
      3.96000000	      0.00323180	     -9.35810888	    -20.55039436	     -0.10684344	      0.67553694	     -0.20161131	      0.00000000	      0.00000000	      0.00000000	     12.79603912	      0.79781639	     26.77188687	     37.01284788	      7.54014331	      0.02925821	      0.00718489	      0.00073425	      6.52647570	      8.45588396	      0.00000000	     43.72016197	      2.69144602	     13.33548042	     31.74508966	      7.57343570	      0.02798246	     -0.00052637	     -0.00343574	     10.06560115	      1.79367032	      0.00000000
      3.97000000	      0.68792242	     -9.06101346	    -20.88638114	     -0.09924623	      0.67755764	     -0.20272307	      0.00000000	      0.00000000	      0.00000000	     13.39873773	      0.12242977	     25.66650587	     37.68990236	      7.68639618	      0.02910981	      0.00721093	      0.00073425	      4.10772019	      8.22463317	      0.00000000	     42.71510443	      3.45668900	     13.60179853	     30.22701683	      7.19890189	      0.02828276	     -0.00058785	     -0.00343574	      9.80716890	      1.66845530	      0.00000000
      3.98000000	      1.25417457	     -8.73467393	    -21.21982544	     -0.09146616	      0.67939995	     -0.20404006	      0.00000000	      0.00000000	      0.00000000	     13.94528894	     -0.50045594	     24.44646955	     38.23822555	      7.80322088	      0.02898942	      0.00723235	      0.00073425	      1.65115287	      7.94001674	      0.00000000	     41.68554865	      4.14412912	     13.94422833	     28.71217729	      6.81335424	      0.02857624	     -0.00064978	     -0.00343574	      9.57393282	      1.59132553	      0.00000000
      3.99000000	      1.71819960	     -8.32233325	    -21.51962848	     -0.08411968	      0.68122068	     -0.20558481	      0.00000000	      0.00000000	      0.00000000	     14.46201541	     -1.01551068	     23.24400445	     38.74132818	      7.90935420	      0.02887659	      0.00725069	      0.00073425	     -0.80749991	      7.67720910	      0.00000000	     40.72103384	      4.77394371	     14.42576295	     27.36673260	      6.46090597	      0.02882840	     -0.00070344	     -0.00343574	      9.29055108	      1.58726130	      0.00000000
      4.00000000	      2.06288744	     -7.90234781	    -21.79477307	     -0.07681547	      0.68275136	     -0.20728027	      0.00000000	      0.00000000	      0.00000000	     14.95740313	     -1.43583972	     22.06404067	     39.26923706	      8.01937367	      0.02875736	      0.00726989	      0.00073425	     -3.13954599	      7.41369555	      0.00000000	     39.81335430	      5.32700425	     14.86404582	     26.20100027	      6.14781996	      0.02904246	     -0.00075232	     -0.00343574	      9.08099033	      1.50993136	      0.00000000
      4.01000000	      2.29660667	     -7.53177592	    -21.98776839	     -0.06958896	      0.68410417	     -0.20890257	      0.00000000	      0.00000000	      0.00000000	     15.41705365	     -1.73855839	     21.00569277	     39.93904345	      8.15730051	      0.02860403	      0.00729661	      0.00073425	     -5.21045266	      7.19443192	      0.00000000	     38.94148954	      5.75234134	     15.19259717	     25.29522846	      5.89934740	      0.02920802	     -0.00078965	     -0.00343574	      8.99368790	      1.33188573	      0.00000000
      4.02000000	      2.34069378	     -6.91625873	    -22.20727414	     -0.06253667	      0.68510715	     -0.21089543	      0.00000000	      0.00000000	      0.00000000	     15.58563580	     -1.58658008	     20.71080577	     40.44815419	      8.26055011	      0.02848975	      0.00731378	      0.00073425	     -5.99433423	      7.21971281	      0.00000000	     38.46223972	      6.05092366	     15.12242122	     25.03675193	      5.82776672	      0.02925209	     -0.00079990	     -0.00343574	      9.03932732	      1.20605640	      0.00000000
      4.03000000	      2.61268738	     -6.91546339	    -22.50166761	     -0.05585053	      0.68604895	     -0.21227253	      0.00000000	      0.00000000	      0.00000000	     16.72598728	     -2.24273006	     19.04760285	     41.64881855	      8.50023372	      0.02820971	      0.00735866	      0.00073425	     -9.00674050	      6.97506479	      0.00000000	     37.47006172	      6.46354841	     15.78232001	     23.63489030	      5.43231133	      0.02950036	     -0.00085783	     -0.00343574	      9.11192896	      1.00113082	      0.00000000
      4.04000000	      2.41328007	     -6.72108265	    -22.33693596	     -0.04937815	      0.68694288	     -0.21358057	      0.00000000	      0.00000000	      0.00000000	     17.21791417	     -1.92370253	     18.51059770	     43.16812829	      8.79458787	      0.02785058	      0.00741967	      0.00073425	    -10.03285556	      6.94060578	      0.00000000	     36.60427731	      6.45480797	     15.88203489	     23.50488138	      5.39507575	      0.02952467	     -0.00085926	     -0.00343574	      9.01080678	      0.85954539	      0.00000000
